<svg width="24" height="16" viewBox="0 0 24 16" fill="none" xmlns="http://www.w3.org/2000/svg">
<path d="M15.465 12.444C15.465 12.637 15.337 12.783 15.146 12.783C14.947 12.783 14.825 12.63 14.825 12.444C14.825 12.258 14.947 12.105 15.146 12.105C15.336 12.106 15.465 12.252 15.465 12.444ZM8.651 12.106C8.452 12.106 8.33 12.259 8.33 12.445C8.33 12.631 8.452 12.784 8.651 12.784C8.841 12.784 8.97 12.638 8.97 12.445C8.97 12.252 8.842 12.106 8.651 12.106ZM12.042 12.095C11.878 12.095 11.785 12.199 11.761 12.352H12.31C12.286 12.188 12.191 12.095 12.042 12.095V12.095ZM17.282 12.106C17.083 12.106 16.961 12.259 16.961 12.445C16.961 12.631 17.083 12.784 17.282 12.784C17.472 12.784 17.601 12.638 17.601 12.445C17.601 12.252 17.472 12.106 17.282 12.106ZM24 2V14C24 15.104 23.104 16 22 16H2C0.896 16 0 15.104 0 14V2C0 0.896 0.896 0 2 0H22C23.104 0 24 0.896 24 2V2ZM5.544 6.985C5.544 9.186 7.328 10.97 9.529 10.97C10.298 10.97 11.016 10.751 11.625 10.374C10.658 9.561 10.043 8.344 10.043 6.985C10.043 5.626 10.659 4.409 11.625 3.596C11.016 3.219 10.299 3 9.529 3C7.329 3 5.544 4.784 5.544 6.985ZM7.89 12.309C7.89 12.059 7.731 11.891 7.474 11.888C7.339 11.886 7.2 11.928 7.102 12.076C7.029 11.959 6.914 11.888 6.752 11.888C6.639 11.888 6.528 11.921 6.442 12.045V11.914H6.212V12.972H6.444V12.385C6.444 12.201 6.546 12.104 6.703 12.104C6.856 12.104 6.933 12.204 6.933 12.383V12.972H7.165V12.385C7.165 12.201 7.271 12.104 7.424 12.104C7.581 12.104 7.656 12.204 7.656 12.383V12.972H7.89V12.309V12.309ZM9.187 11.915H8.957V12.043C8.884 11.948 8.773 11.888 8.623 11.888C8.326 11.888 8.094 12.12 8.094 12.444C8.094 12.768 8.326 13 8.623 13C8.774 13 8.884 12.94 8.957 12.845V12.973H9.187V11.915V11.915ZM10.351 12.655C10.351 12.469 10.212 12.372 9.981 12.338L9.873 12.322C9.773 12.309 9.694 12.289 9.694 12.218C9.694 12.14 9.769 12.094 9.895 12.094C10.03 12.094 10.161 12.145 10.225 12.185L10.325 11.999C10.214 11.926 10.062 11.888 9.893 11.888C9.625 11.888 9.453 12.016 9.453 12.227C9.453 12.4 9.581 12.506 9.818 12.539L9.926 12.555C10.052 12.573 10.112 12.606 10.112 12.666C10.112 12.748 10.028 12.794 9.871 12.794C9.712 12.794 9.597 12.743 9.519 12.683L9.411 12.862C9.537 12.956 9.696 13 9.869 13C10.174 13 10.351 12.856 10.351 12.655V12.655ZM11.376 12.918L11.31 12.721C11.241 12.761 11.166 12.781 11.106 12.781C10.991 12.781 10.953 12.71 10.953 12.604V12.126H11.329V11.916H10.953V11.595H10.721V11.916H10.506V12.126H10.721V12.609C10.721 12.855 10.816 13.001 11.088 13.001C11.188 13 11.303 12.969 11.376 12.918ZM12.549 12.444C12.547 12.114 12.343 11.888 12.046 11.888C11.736 11.888 11.519 12.114 11.519 12.444C11.519 12.78 11.745 13 12.061 13C12.22 13 12.366 12.96 12.495 12.852L12.382 12.682C12.293 12.753 12.181 12.793 12.074 12.793C11.926 12.793 11.791 12.724 11.757 12.534H12.543L12.549 12.444ZM13.457 11.918L13.293 11.889C13.16 11.889 13.074 11.951 13.014 12.044V11.916H12.786V12.974H13.016V12.38C13.016 12.205 13.091 12.108 13.242 12.108L13.386 12.135L13.457 11.918V11.918ZM13.765 12.444C13.765 12.24 13.9 12.108 14.084 12.105C14.184 12.105 14.274 12.138 14.361 12.2L14.472 12.014C14.357 11.923 14.251 11.888 14.091 11.888C13.75 11.888 13.527 12.123 13.527 12.444C13.527 12.765 13.749 13 14.09 13C14.249 13 14.356 12.965 14.471 12.874L14.36 12.688C14.274 12.75 14.183 12.783 14.083 12.783C13.9 12.781 13.765 12.648 13.765 12.444V12.444ZM15.681 11.915H15.451V12.043C15.378 11.948 15.267 11.888 15.117 11.888C14.82 11.888 14.588 12.12 14.588 12.444C14.588 12.767 14.82 13 15.117 13C15.268 13 15.378 12.94 15.451 12.845V12.973H15.681V11.915ZM16.655 11.918L16.491 11.889C16.358 11.889 16.272 11.951 16.212 12.044V11.916H15.984V12.974H16.214V12.38C16.214 12.205 16.289 12.108 16.44 12.108L16.584 12.135L16.655 11.918V11.918ZM17.817 11.49H17.587V12.043C17.514 11.948 17.403 11.888 17.253 11.888C16.956 11.888 16.724 12.12 16.724 12.444C16.724 12.767 16.956 13 17.253 13C17.404 13 17.514 12.94 17.587 12.845V12.973H17.817V11.49ZM18.456 6.985C18.456 4.784 16.671 3 14.471 3C12.271 3 10.486 4.784 10.486 6.985C10.486 9.186 12.27 10.97 14.471 10.97C16.672 10.97 18.456 9.186 18.456 6.985Z" fill="black"/>
</svg>
