<svg width="24" height="16" viewBox="0 0 24 16" fill="none" xmlns="http://www.w3.org/2000/svg">
<path d="M19.662 7.156L20.037 8.872H18.693L19.338 7.211L19.553 6.644L19.662 7.156ZM24 2V14C24 15.104 23.104 16 22 16H2C0.896 16 0 15.104 0 14V2C0 0.896 0.896 0 2 0H22C23.104 0 24 0.896 24 2V2ZM6.854 10.971L9.403 5.042H7.688L6.103 9.093L5.934 8.27L5.366 5.54C5.268 5.163 4.983 5.051 4.632 5.038H2.021L2 5.161C2.635 5.315 3.203 5.537 3.701 5.812L5.141 10.972L6.854 10.971V10.971ZM11.677 5.037H10.058L9.046 10.978H10.665L11.677 5.037ZM16.302 9.036C16.308 8.36 15.877 7.846 14.943 7.422C14.377 7.147 14.03 6.964 14.034 6.686C14.034 6.439 14.327 6.175 14.961 6.175C15.491 6.167 15.874 6.282 16.173 6.403L16.318 6.471L16.537 5.184C16.216 5.063 15.713 4.934 15.086 4.934C13.486 4.934 12.359 5.74 12.349 6.895C12.34 7.749 13.154 8.225 13.768 8.509C14.398 8.8 14.61 8.986 14.607 9.246C14.603 9.644 14.104 9.826 13.638 9.826C12.99 9.826 12.646 9.736 12.114 9.514L11.905 9.419L11.678 10.749C12.056 10.915 12.756 11.059 13.482 11.066C15.184 11.066 16.289 10.269 16.302 9.036ZM22 10.98L20.689 5.043H19.438C19.05 5.043 18.76 5.149 18.59 5.536L16.185 10.98H17.885L18.226 10.087L20.3 10.09L20.497 10.98H22V10.98Z" fill="black"/>
</svg>
