<svg width="32" height="32" viewBox="0 0 32 32" fill="none" xmlns="http://www.w3.org/2000/svg">
<rect width="32" height="32" rx="16" fill="#2DC071"/>
<g clip-path="url(#clip0_2080_14)">
<path fill-rule="evenodd" clip-rule="evenodd" d="M24.2957 10.2043C24.3604 10.269 24.4118 10.3457 24.4469 10.4302C24.4819 10.5147 24.5 10.6053 24.5 10.6968C24.5 10.7883 24.4819 10.8789 24.4469 10.9634C24.4118 11.0479 24.3604 11.1246 24.2957 11.1893L14.5578 20.9271C14.4932 20.9919 14.4164 21.0433 14.3319 21.0783C14.2474 21.1134 14.1568 21.1314 14.0654 21.1314C13.9739 21.1314 13.8833 21.1134 13.7988 21.0783C13.7143 21.0433 13.6375 20.9919 13.5729 20.9271L8.70398 16.0582C8.57337 15.9276 8.5 15.7504 8.5 15.5657C8.5 15.381 8.57337 15.2039 8.70398 15.0733C8.83459 14.9427 9.01173 14.8693 9.19644 14.8693C9.38115 14.8693 9.55829 14.9427 9.6889 15.0733L14.0654 19.4511L23.3107 10.2043C23.3754 10.1396 23.4521 10.0882 23.5366 10.0531C23.6211 10.018 23.7117 10 23.8032 10C23.8947 10 23.9853 10.018 24.0698 10.0531C24.1543 10.0882 24.231 10.1396 24.2957 10.2043V10.2043Z" fill="white"/>
</g>
<defs>
<clipPath id="clip0_2080_14">
<rect width="16" height="11" fill="white" transform="translate(8 10)"/>
</clipPath>
</defs>
</svg>
