<svg width="72" height="60" viewBox="0 0 72 60" fill="none" xmlns="http://www.w3.org/2000/svg">
<g clip-path="url(#clip0_2080_7)">
<path fill-rule="evenodd" clip-rule="evenodd" d="M0 9.42857C0 7.19318 0.895533 5.04934 2.48959 3.46867C4.08365 1.88801 6.24566 1 8.5 1H65.875C66.4386 1 66.9791 1.222 67.3776 1.61717C67.7761 2.01233 68 2.54829 68 3.10714C68 3.66599 67.7761 4.20195 67.3776 4.59712C66.9791 4.99228 66.4386 5.21429 65.875 5.21429H63.75V13.6429C64.8772 13.6429 65.9582 14.0869 66.7552 14.8772C67.5522 15.6675 68 16.7394 68 17.8571V53.6786C68 55.3551 67.3284 56.963 66.1328 58.1485C64.9373 59.334 63.3158 60 61.625 60H10.625C7.80707 60 5.10456 58.89 3.11199 56.9142C1.11942 54.9383 0 52.2585 0 49.4643L0 9.42857ZM4.25 16.7277V49.4643C4.25 51.1408 4.92165 52.7487 6.11719 53.9342C7.31274 55.1197 8.93424 55.7857 10.625 55.7857H61.625C62.1886 55.7857 62.7291 55.5637 63.1276 55.1685C63.5261 54.7734 63.75 54.2374 63.75 53.6786V17.8571H8.5C7.00765 17.8591 5.54137 17.4694 4.25 16.7277V16.7277ZM4.25 9.42857C4.25 10.5463 4.69777 11.6182 5.4948 12.4085C6.29183 13.1989 7.37283 13.6429 8.5 13.6429H59.5V5.21429H8.5C7.37283 5.21429 6.29183 5.65829 5.4948 6.44862C4.69777 7.23895 4.25 8.31087 4.25 9.42857V9.42857Z" fill="#23A6F0"/>
</g>
<defs>
<clipPath id="clip0_2080_7">
<rect width="72" height="59.2942" fill="white"/>
</clipPath>
</defs>
</svg>
