<svg width="72" height="60" viewBox="0 0 72 60" fill="none" xmlns="http://www.w3.org/2000/svg">
<path fill-rule="evenodd" clip-rule="evenodd" d="M14.5 14.4287C14.5 12.4585 15.2796 10.569 16.6674 9.17582C18.0552 7.78266 19.9374 7 21.9 7H44.1C46.0626 7 47.9448 7.78266 49.3326 9.17582C50.7204 10.569 51.5 12.4585 51.5 14.4287V57.1438C51.4998 57.4797 51.4089 57.8093 51.2369 58.0975C51.0649 58.3856 50.8182 58.6215 50.5232 58.7801C50.2282 58.9387 49.8959 59.0139 49.5616 58.9979C49.2273 58.9818 48.9037 58.8751 48.6251 58.689L33 48.233L17.3749 58.689C17.0963 58.8751 16.7727 58.9818 16.4384 58.9979C16.1041 59.0139 15.7718 58.9387 15.4768 58.7801C15.1818 58.6215 14.9351 58.3856 14.7631 58.0975C14.5911 57.8093 14.5002 57.4797 14.5 57.1438V14.4287ZM21.9 10.7144C20.9187 10.7144 19.9776 11.1057 19.2837 11.8023C18.5898 12.4988 18.2 13.4436 18.2 14.4287V53.6746L31.9751 44.4555C32.2787 44.2527 32.6353 44.1445 33 44.1445C33.3647 44.1445 33.7213 44.2527 34.0249 44.4555L47.8 53.6746V14.4287C47.8 13.4436 47.4102 12.4988 46.7163 11.8023C46.0224 11.1057 45.0813 10.7144 44.1 10.7144H21.9Z" fill="#23A6F0"/>
<path fill-rule="evenodd" clip-rule="evenodd" d="M22.5 3.64292H51.1017C52.0828 3.64292 53.0237 4.02673 53.7174 4.70991C54.4111 5.39309 54.8009 6.31968 54.8009 7.28585V50.1558L55.6258 50.6949C55.9043 50.8775 56.2279 50.9822 56.5621 50.9979C56.8962 51.0137 57.2285 50.9398 57.5234 50.7843C57.8184 50.6288 58.065 50.3974 58.2369 50.1148C58.4089 49.8322 58.4998 49.509 58.5 49.1795V7.28585C58.5 5.35352 57.7205 3.50034 56.3331 2.13398C54.9456 0.767614 53.0639 0 51.1017 0L28.9069 0C27.6083 3.24892e-05 26.3325 0.3367 25.2079 0.976165C24.0832 1.61563 23.1493 2.53536 22.5 3.64292V3.64292Z" fill="#23A6F0"/>
</svg>
