<svg id="ico" width="40" height="40" viewBox="0 0 40 40" xmlns="http://www.w3.org/2000/svg">
  <path
    d="M20.5 3C10.8349 3 3 10.8351 3 20.5005C3.00012 22.7986 3.45289 25.0743 4.33246 27.1975C5.21202 29.3207 6.50117 31.2499 8.12628 32.8749C9.75139 34.4999 11.6806 35.7888 13.8039 36.6682C15.9271 37.5476 18.2028 38.0001 20.5009 38C22.799 37.9999 25.0746 37.5471 27.1978 36.6675C29.321 35.7879 31.2501 34.4987 32.875 32.8736C34.5 31.2484 35.7889 29.3191 36.6682 27.1958C37.5476 25.0725 38.0001 22.7968 38 20.4986C38 10.8351 30.1633 3 20.5 3ZM20.2247 30.7072H20.1318C18.7063 30.6653 17.7 29.6135 17.7419 28.2079C17.782 26.8261 18.812 25.8217 20.1901 25.8217L20.274 25.8253C21.7396 25.8673 22.7349 26.9082 22.693 28.3538C22.651 29.7392 21.6393 30.7072 20.2247 30.7072ZM26.224 18.8015C25.8885 19.2754 25.1521 19.8697 24.2224 20.5934L23.1979 21.2989C22.6365 21.7364 22.2974 22.1502 22.1716 22.5531C22.0695 22.8703 22.0221 22.956 22.013 23.6031V23.7672H18.1029L18.1138 23.4354C18.163 22.0791 18.1958 21.277 18.7591 20.6153C19.6432 19.5799 21.5938 18.322 21.6758 18.2691C21.9434 18.0737 22.1768 17.8353 22.3667 17.5637C22.7768 16.9967 22.9573 16.5519 22.9573 16.118C22.9573 15.5092 22.7786 14.9459 22.4232 14.4482C22.0805 13.9633 21.4297 13.7227 20.4891 13.7227C19.5557 13.7227 18.9159 14.018 18.5349 14.6269C18.1411 15.2485 17.9424 15.9029 17.9424 16.572V16.7397H13.912L13.9193 16.5647C14.0232 14.0982 14.9055 12.3208 16.5352 11.2835C17.5615 10.6255 18.8393 10.2919 20.3286 10.2919C22.2755 10.2919 23.9234 10.7658 25.2177 11.6992C26.532 12.6453 27.1974 14.0636 27.1974 15.9121C27.1956 16.9457 26.8693 17.9173 26.224 18.8015Z" />
</svg>