<svg id="ico" width="26" height="26" viewBox="0 0 26 26" xmlns="http://www.w3.org/2000/svg">
  <path
    d="M24.9746 9.42739C24.9047 7.85248 24.5755 6.29987 24.0002 4.83211C23.899 4.57332 23.9278 4.33733 23.9597 4.08209C24.0502 3.3954 23.876 2.70001 23.4725 2.13703C23.069 1.57405 22.4665 1.18565 21.7872 1.05064C21.744 1.03764 21.7021 1.02069 21.6621 1L20.867 1C20.589 1.09369 20.2947 1.15193 20.0375 1.29119C19.7487 1.44403 19.4834 1.63742 19.2495 1.86548C13.4489 7.65626 7.65272 13.4511 1.86092 19.25C1.43046 19.6804 1.13572 20.1853 1.03899 20.7905C1.02995 20.8197 1.01682 20.8475 1 20.8731L1 21.6697C1.12813 22.1179 1.26435 22.5605 1.5677 22.9281C2.27973 23.7907 3.18674 24.1301 4.28871 23.9461C4.41546 23.9197 4.5468 23.9258 4.67056 23.9638C6.09715 24.5067 7.56578 24.8586 9.09164 24.9554C9.14464 24.9636 9.19659 24.9775 9.2466 24.9969H11.1204C11.4956 24.9503 11.8765 24.9067 12.2537 24.8581C14.222 24.6131 16.1197 23.97 17.8315 22.9681C21.5375 20.7966 23.7328 17.5347 24.6611 13.379C24.9438 12.082 25.0492 10.7527 24.9746 9.42739ZM9.81937 21.5973C9.8193 21.6923 9.80052 21.7864 9.76409 21.8742C9.72766 21.9619 9.67429 22.0417 9.60705 22.1088C9.5398 22.176 9.45999 22.2292 9.37216 22.2655C9.28433 22.3018 9.19022 22.3205 9.09518 22.3204H9.07746C8.98242 22.3205 8.8883 22.3018 8.80048 22.2655C8.71265 22.2292 8.63284 22.176 8.56559 22.1088C8.49834 22.0417 8.44498 21.9619 8.40855 21.8742C8.37212 21.7864 8.35334 21.6923 8.35327 21.5973V20.2112C8.35334 20.1161 8.37212 20.0221 8.40855 19.9343C8.44498 19.8465 8.49834 19.7668 8.56559 19.6996C8.63284 19.6325 8.71265 19.5792 8.80048 19.5429C8.8883 19.5066 8.98242 19.4879 9.07746 19.488H9.09518C9.28707 19.488 9.47112 19.5642 9.6069 19.6998C9.74268 19.8353 9.8191 20.0193 9.81937 20.2112V21.5973ZM14.6547 21.2428C14.6307 21.3844 14.5652 21.5156 14.4664 21.62C14.3677 21.7243 14.2402 21.7969 14.1002 21.8287C13.9116 21.8739 13.7127 21.8427 13.5471 21.7418C13.3814 21.641 13.2624 21.4787 13.2159 21.2904L12.8934 19.9402C12.872 19.8473 12.8692 19.7511 12.8851 19.6571C12.901 19.5631 12.9353 19.4732 12.986 19.3924C13.0367 19.3117 13.1028 19.2418 13.1806 19.1867C13.2584 19.1315 13.3463 19.0923 13.4393 19.0712C13.6275 19.0275 13.8253 19.0598 13.99 19.1609C14.1546 19.262 14.2728 19.4239 14.3189 19.6116L14.6446 20.9607C14.6664 21.0535 14.6698 21.1497 14.6547 21.2438V21.2428ZM19.1082 18.7106C19.0712 18.7984 19.0173 18.8781 18.9497 18.9451C18.811 19.0802 18.625 19.1558 18.4314 19.1558C18.2377 19.1558 18.0517 19.0802 17.913 18.9451L16.9194 17.9652C16.8517 17.8984 16.798 17.8189 16.7614 17.7312C16.7248 17.6434 16.706 17.5493 16.7062 17.4542C16.7062 17.3591 16.7249 17.265 16.7614 17.1772C16.7983 17.0896 16.852 17.0102 16.9194 16.9432C17.058 16.8079 17.244 16.7321 17.4377 16.7321C17.6315 16.7321 17.8175 16.8079 17.9561 16.9432L18.9497 17.9226C19.0519 18.0233 19.1216 18.1522 19.1498 18.2929C19.1781 18.4335 19.1636 18.5794 19.1082 18.7117V18.7106ZM21.9087 14.0951C21.8652 14.2833 21.7494 14.4469 21.5863 14.5505C21.4233 14.6542 21.2261 14.6896 21.0372 14.6491L19.6637 14.3559C19.5701 14.3366 19.4812 14.2989 19.4022 14.2451C19.3232 14.1913 19.2556 14.1225 19.2033 14.0425C19.1509 13.9625 19.1149 13.8729 19.0973 13.779C19.0797 13.685 19.0808 13.5885 19.1006 13.495C19.1438 13.3067 19.2594 13.143 19.4225 13.0394C19.5855 12.9358 19.7828 12.9006 19.9716 12.9415L21.3451 13.2347C21.4388 13.2538 21.5278 13.2914 21.6069 13.3451C21.6861 13.3988 21.7538 13.4677 21.8062 13.5477C21.8586 13.6278 21.8946 13.7174 21.9122 13.8114C21.9298 13.9055 21.9286 14.0015 21.9087 14.0951ZM21.6469 9.86748H20.2238C20.1273 9.87003 20.0312 9.85322 19.9413 9.81804C19.8513 9.78286 19.7693 9.73002 19.7002 9.66264C19.631 9.59526 19.576 9.5147 19.5384 9.42572C19.5009 9.33674 19.4815 9.24113 19.4815 9.14456C19.4815 9.04798 19.5009 8.95238 19.5384 8.8634C19.576 8.77442 19.631 8.69386 19.7002 8.62647C19.7693 8.55909 19.8513 8.50625 19.9413 8.47107C20.0312 8.43589 20.1273 8.41908 20.2238 8.42164H21.6469C21.7434 8.41908 21.8395 8.43589 21.9295 8.47107C22.0194 8.50625 22.1014 8.55909 22.1706 8.62647C22.2398 8.69386 22.2948 8.77442 22.3323 8.8634C22.3699 8.95238 22.3892 9.04798 22.3892 9.14456C22.3892 9.24113 22.3699 9.33674 22.3323 9.42572C22.2948 9.5147 22.2398 9.59526 22.1706 9.66264C22.1014 9.73002 22.0194 9.78286 21.9295 9.81804C21.8395 9.85322 21.7434 9.87003 21.6469 9.86748Z" />
</svg>