<svg id="ico" width="13" height="13" viewBox="0 0 13 13" xmlns="http://www.w3.org/2000/svg">
  <path fill-rule="evenodd" clip-rule="evenodd"
    d="M0.316867 0.330729C0.519817 0.127635 0.795041 0.0135436 1.08201 0.0135436C1.36899 0.0135436 1.64421 0.127635 1.84716 0.330729L6.49323 4.98148L11.1393 0.330729C11.2391 0.22726 11.3586 0.144729 11.4906 0.0879524C11.6226 0.031176 11.7647 0.00129087 11.9084 4.09035e-05C12.0521 -0.00120906 12.1946 0.0262009 12.3276 0.0806718C12.4606 0.135143 12.5814 0.215584 12.683 0.317301C12.7846 0.419018 12.865 0.539974 12.9194 0.673112C12.9738 0.80625 13.0012 0.948903 13 1.09275C12.9987 1.23659 12.9689 1.37875 12.9121 1.51092C12.8554 1.64309 12.773 1.76263 12.6696 1.86256L8.02353 6.51331L12.6696 11.1641C12.8667 11.3684 12.9758 11.642 12.9734 11.9261C12.9709 12.2101 12.8571 12.4818 12.6564 12.6827C12.4558 12.8836 12.1843 12.9975 11.9006 13C11.6168 13.0024 11.3434 12.8932 11.1393 12.6959L6.49323 8.04515L1.84716 12.6959C1.64305 12.8932 1.36967 13.0024 1.08591 13C0.802147 12.9975 0.530707 12.8836 0.33005 12.6827C0.129393 12.4818 0.0155741 12.2101 0.0131083 11.9261C0.0106425 11.642 0.119727 11.3684 0.316867 11.1641L4.96294 6.51331L0.316867 1.86256C0.113977 1.65941 0 1.38391 0 1.09665C0 0.809384 0.113977 0.533884 0.316867 0.330729V0.330729Z" />
</svg>