<svg id="ico" width="40" height="40" viewBox="0 0 40 40" xmlns="http://www.w3.org/2000/svg">
  <path
    d="M18.1637 6.86788C17.2979 5.96453 16.2588 5.24498 15.1087 4.75224C13.9585 4.2595 12.7208 4.00367 11.4695 4.00004C10.2182 3.99641 8.97904 4.24505 7.82602 4.73111C6.673 5.21717 5.62979 5.93068 4.75872 6.82899C1.06428 10.6207 1.08372 16.7807 4.79761 20.584L18.5254 34.6734C19.0932 35.2568 20.0187 35.2568 20.5865 34.6734L34.2482 20.6657C36.0212 18.8142 37.0077 16.3477 37.0005 13.7842C36.9932 11.2207 35.9928 8.75982 34.2093 6.91843C33.3427 6.01402 32.3027 5.29369 31.1513 4.80052C29.9999 4.30734 28.7609 4.05147 27.5084 4.0482C26.2559 4.04494 25.0155 4.29434 23.8616 4.7815C22.7077 5.26866 21.6639 5.98356 20.7926 6.88343L19.486 8.2251L18.1637 6.86399V6.86788Z" />
</svg>