<svg id="ico" width="26" height="26" viewBox="0 0 26 26" xmlns="http://www.w3.org/2000/svg">
  <path
    d="M9.10248 1.00092C8.81715 0.990137 8.53627 1.07398 8.30354 1.2394C8.07082 1.40481 7.89931 1.64253 7.81572 1.91553L1.06056 23.3067C0.988731 23.5338 0.980632 23.7763 1.03715 24.0077C1.09367 24.2391 1.21263 24.4505 1.38107 24.6189C1.54952 24.7874 1.76097 24.9063 1.99238 24.9629C2.2238 25.0194 2.46628 25.0113 2.69341 24.9394L24.0856 18.1846C24.3586 18.1016 24.5964 17.9304 24.7617 17.6978C24.927 17.4652 25.0104 17.1843 24.999 16.8992C24.5072 8.3451 17.6557 1.49401 9.10248 1.00092ZM9.41474 19.1877C9.07293 19.1876 8.73449 19.1202 8.41874 18.9893C8.10299 18.8584 7.81611 18.6667 7.57447 18.4249C7.33284 18.1832 7.1412 17.8962 7.01047 17.5804C6.87975 17.2646 6.81251 16.9262 6.8126 16.5844C6.81268 16.2426 6.88009 15.9042 7.01097 15.5884C7.14185 15.2727 7.33364 14.9858 7.5754 14.7442C7.81715 14.5026 8.10412 14.3109 8.41994 14.1802C8.73576 14.0495 9.07423 13.9823 9.41604 13.9824C10.1063 13.9825 10.7683 14.2569 11.2563 14.7451C11.7443 15.2333 12.0184 15.8954 12.0182 16.5857C12.018 17.2759 11.7436 17.9379 11.2554 18.4258C10.7671 18.9138 10.105 19.1879 9.41474 19.1877V19.1877ZM17.2212 16.5857C16.8794 16.5856 16.5409 16.5182 16.2252 16.3873C15.9094 16.2564 15.6225 16.0647 15.3809 15.8229C15.1393 15.5812 14.9476 15.2942 14.8169 14.9784C14.6862 14.6626 14.6189 14.3242 14.619 13.9824C14.6191 13.6406 14.6865 13.3022 14.8174 12.9864C14.9483 12.6707 15.1401 12.3838 15.3818 12.1422C15.6236 11.9006 15.9105 11.7089 16.2264 11.5782C16.5422 11.4475 16.8807 11.3803 17.2225 11.3804C17.9128 11.3805 18.5747 11.6549 19.0627 12.1431C19.5507 12.6313 19.8248 13.2934 19.8246 13.9837C19.8244 14.6739 19.55 15.3359 19.0618 15.8238C18.5736 16.3118 17.9115 16.5859 17.2212 16.5857V16.5857Z" />
</svg>