<svg id="ico" width="26" height="26" viewBox="0 0 26 26" xmlns="http://www.w3.org/2000/svg">
  <path
    d="M23.3647 3.18533C23.9065 2.45867 24 1 24 1H2C2 1 2.0935 2.45867 2.63525 3.18533L11.625 14.3333V22.3333H8.875C6.125 22.3333 6.125 25 6.125 25H19.875C19.875 25 19.875 22.3333 17.125 22.3333H14.375V14.3333L23.3647 3.18533ZM12.175 7.66667C12.175 7.10087 12.4068 6.55825 12.8194 6.15817C13.2319 5.75809 13.7915 5.53333 14.375 5.53333C14.9585 5.53333 15.5181 5.75809 15.9306 6.15817C16.3432 6.55825 16.575 7.10087 16.575 7.66667C16.575 8.23246 16.3432 8.77508 15.9306 9.17516C15.5181 9.57524 14.9585 9.8 14.375 9.8C13.7915 9.8 13.2319 9.57524 12.8194 9.17516C12.4068 8.77508 12.175 8.23246 12.175 7.66667Z" />
</svg>