<svg id="ico" width="13" height="13" viewBox="0 0 13 13" xmlns="http://www.w3.org/2000/svg">
  <path fill-rule="evenodd" clip-rule="evenodd"
    d="M6.28571 0C6.838 0 7.28571 0.447715 7.28571 1V5.28571H11.5714C12.1237 5.28571 12.5714 5.73343 12.5714 6.28571C12.5714 6.838 12.1237 7.28571 11.5714 7.28571H7.28571V11.5714C7.28571 12.1237 6.838 12.5714 6.28571 12.5714C5.73343 12.5714 5.28571 12.1237 5.28571 11.5714V7.28571H1C0.447715 7.28571 0 6.838 0 6.28571C0 5.73343 0.447715 5.28571 1 5.28571H5.28571V1C5.28571 0.447715 5.73343 0 6.28571 0Z" />
</svg>