<svg id="ico" width="26" height="26" viewBox="0 0 26 26" xmlns="http://www.w3.org/2000/svg">
  <path
    d="M10.2258 1.69C9.78672 2.38381 9.51686 3.17112 9.438 3.9884C9.373 5.0908 9.542 6.1776 10.2258 6.9992C10.9408 7.8572 11.973 8.138 12.9948 8.138C14.0426 8.138 15.067 7.8182 15.7716 6.968C16.4502 6.1464 16.6348 5.0674 16.5594 3.9728C16.4698 3.16968 16.1995 2.39726 15.769 1.7134C15.2958 0.9594 14.3988 0 12.9948 0C11.6064 0 10.7068 0.9282 10.2258 1.69ZM6.5 10.4C5.46566 10.4 4.47368 10.8109 3.74228 11.5423C3.01089 12.2737 2.6 13.2657 2.6 14.3V14.3156L7.4542 18.1012C7.56456 18.1866 7.69948 18.2343 7.83902 18.2371C7.97856 18.2399 8.11529 18.1977 8.229 18.1168L11.115 16.0628C11.6654 15.6709 12.3243 15.4603 13 15.4603C13.6757 15.4603 14.3346 15.6709 14.885 16.0628L17.771 18.1168C17.8847 18.1977 18.0214 18.2399 18.161 18.2371C18.3005 18.2343 18.4354 18.1866 18.5458 18.1012L23.4 14.3156V14.3C23.4 13.2657 22.9891 12.2737 22.2577 11.5423C21.5263 10.8109 20.5343 10.4 19.5 10.4H6.5ZM20.1474 20.15L23.4 17.6124V23.4H24.7C25.0448 23.4 25.3754 23.537 25.6192 23.7808C25.863 24.0246 26 24.3552 26 24.7C26 25.0448 25.863 25.3754 25.6192 25.6192C25.3754 25.863 25.0448 26 24.7 26H1.3C0.955219 26 0.624558 25.863 0.380761 25.6192C0.136964 25.3754 0 25.0448 0 24.7C0 24.3552 0.136964 24.0246 0.380761 23.7808C0.624558 23.537 0.955219 23.4 1.3 23.4H2.6V17.6124L5.8526 20.15C6.40469 20.5814 7.0814 20.8228 7.78186 20.8382C8.48231 20.8537 9.16901 20.6424 9.7396 20.2358L12.623 18.1818C12.7331 18.1034 12.8649 18.0613 13 18.0613C13.1351 18.0613 13.2669 18.1034 13.377 18.1818L16.263 20.2358C16.8333 20.6418 17.5195 20.8527 18.2194 20.8373C18.9193 20.8218 19.5955 20.5808 20.1474 20.15Z" />
</svg>