<svg id="ico" width="40" height="40" viewBox="0 0 40 40" xmlns="http://www.w3.org/2000/svg">
  <path
    d="M18.2989 4.72022C18.8674 4.25449 19.5797 4 20.3147 4C21.0497 4 21.762 4.25449 22.3306 4.72022L33.4244 13.7654C33.8019 14.0749 34.1059 14.4645 34.3143 14.9059C34.5227 15.3473 34.6303 15.8295 34.6294 16.3177V32.7248C34.6294 34.5327 33.1878 35.9978 31.4086 35.9978H27.1142C25.335 35.9978 23.8934 34.5327 23.8934 32.7248V24.8408C23.8934 24.2387 23.4134 23.7503 22.8198 23.7503H17.8096C17.2168 23.7503 16.736 24.2387 16.736 24.8408V32.7257C16.736 34.5335 15.2945 35.9987 13.5152 35.9987H9.22081C7.44242 35.9978 6.00001 34.5327 6.00001 32.7248V16.3177C5.99909 15.8295 6.10673 15.3473 6.31513 14.9059C6.52353 14.4645 6.82748 14.0749 7.20497 13.7654L18.2989 4.72022Z" />
</svg>