<svg id="ico" width="40" height="40" viewBox="0 0 40 40" xmlns="http://www.w3.org/2000/svg">
  <path
    d="M16.0061 36.9809C17.317 37.2937 18.6589 37.4515 20.0061 37.4515C21.3504 37.4501 22.6899 37.2912 23.9973 36.9782C24.341 36.8954 24.6508 36.7088 24.8846 36.4436C25.1184 36.1784 25.2647 35.8476 25.3037 35.4963L25.6033 32.7743C25.6539 32.2876 25.8766 31.8349 26.2314 31.4977C26.5861 31.1605 27.0495 30.9611 27.5382 30.9352C27.8635 30.921 28.187 30.9822 28.4848 31.1125L30.9727 32.2035C31.189 32.3008 31.4233 32.3519 31.6605 32.3534C31.8976 32.3549 32.1325 32.3069 32.3501 32.2124C32.569 32.1193 32.7649 31.9811 32.9262 31.8065C34.7555 29.8346 36.1213 27.479 36.9235 24.9117C37.0286 24.5711 37.0253 24.2063 36.9142 23.8677C36.803 23.529 36.5895 23.2332 36.3031 23.0211L34.0926 21.3903C33.8293 21.1991 33.615 20.9482 33.4673 20.6583C33.3195 20.3684 33.2425 20.0476 33.2425 19.7222C33.2425 19.3968 33.3195 19.076 33.4673 18.7861C33.615 18.4962 33.8293 18.2454 34.0926 18.0541L36.296 16.4268C36.5832 16.2143 36.7972 15.9178 36.9084 15.5783C37.0196 15.2387 37.0224 14.873 36.9165 14.5318C36.1139 11.9642 34.7465 9.6089 32.9147 7.63884C32.672 7.37942 32.3547 7.20173 32.0067 7.13029C31.6587 7.05885 31.2971 7.09718 30.9718 7.23999L28.4848 8.3355C28.2277 8.45161 27.9477 8.51277 27.664 8.51277C27.1535 8.51176 26.6613 8.32234 26.2819 7.98081C25.9024 7.63929 25.6623 7.16971 25.6077 6.66211L25.3064 3.94993C25.2678 3.59396 25.1189 3.25895 24.8805 2.9918C24.6421 2.72464 24.3262 2.5387 23.9769 2.46001C22.6761 2.16961 21.3486 2.01544 20.0159 2C18.674 2.01549 17.3374 2.16994 16.0274 2.46089C15.6785 2.53914 15.3628 2.72448 15.1244 2.99099C14.886 3.25749 14.7369 3.59184 14.6979 3.94727L14.3965 6.66122C14.3397 7.16963 14.0973 7.63921 13.7158 7.98008C13.3267 8.31068 12.8357 8.49859 12.3252 8.51188C12.0435 8.51169 11.765 8.45315 11.5071 8.33993L9.02536 7.24443C8.69901 7.10033 8.33586 7.06148 7.98641 7.13328C7.63695 7.20507 7.31854 7.38395 7.07543 7.64505C5.2461 9.61554 3.88035 11.97 3.07808 14.5363C2.9721 14.8773 2.97489 15.2429 3.08606 15.5823C3.19724 15.9217 3.41128 16.2181 3.69851 16.4304L5.9037 18.0577C6.29764 18.3488 6.57603 18.7698 6.68972 19.2463C6.8034 19.7228 6.74507 20.2241 6.52502 20.6617C6.37869 20.9519 6.16616 21.2036 5.90459 21.3965L3.69762 23.0265C3.41065 23.2385 3.19675 23.5346 3.08558 23.8737C2.97441 24.2127 2.97148 24.578 3.07719 24.9188C3.87804 27.4875 5.24391 29.8443 7.07455 31.8162C7.31639 32.0772 7.63362 32.2562 7.98204 32.3284C8.33045 32.4005 8.6927 32.3621 9.01827 32.2186L11.516 31.1222C11.7739 31.0088 12.0522 30.9503 12.334 30.9503H12.3411C12.8497 30.9509 13.3403 31.1386 13.7195 31.4776C14.0987 31.8166 14.34 32.2832 14.3974 32.7885L14.697 35.498C14.736 35.8499 14.8827 36.1811 15.117 36.4465C15.3513 36.7119 15.6618 36.8985 16.0061 36.9809ZM19.9999 25.2653C18.5307 25.2653 17.1217 24.6817 16.0829 23.6428C15.044 22.604 14.4604 21.1949 14.4604 19.7258C14.4604 18.2566 15.044 16.8476 16.0829 15.8087C17.1217 14.7698 18.5307 14.1862 19.9999 14.1862C21.4691 14.1862 22.8781 14.7698 23.917 15.8087C24.9559 16.8476 25.5395 18.2566 25.5395 19.7258C25.5395 21.1949 24.9559 22.604 23.917 23.6428C22.8781 24.6817 21.4691 25.2653 19.9999 25.2653Z" />
</svg>